<?xml version="1.0" standalone="no"?>
<!DOCTYPE svg PUBLIC "-//W3C//DTD SVG 20010904//EN"
 "http://www.w3.org/TR/2001/REC-SVG-20010904/DTD/svg10.dtd">
<svg version="1.0" xmlns="http://www.w3.org/2000/svg"
 width="386.000000pt" height="386.000000pt" viewBox="0 0 386.000000 386.000000"
 preserveAspectRatio="xMidYMid meet">

<g transform="translate(0.000000,386.000000) scale(0.100000,-0.100000)"
fill="#000000" stroke="none">
<path d="M1850 3730 c-136 -14 -252 -72 -359 -178 -90 -90 -154 -206 -173
-312 -6 -36 -15 -70 -20 -76 -5 -7 -34 -15 -64 -19 -222 -27 -440 -189 -550
-408 -67 -132 -74 -182 -74 -529 l0 -308 340 0 340 0 0 90 c0 83 2 93 25 115
31 31 49 31 80 0 23 -22 25 -32 25 -115 l0 -90 515 0 515 0 0 90 c0 83 2 93
25 115 29 30 45 31 76 6 22 -17 24 -29 27 -115 l4 -96 340 0 340 0 -5 318 c-4
289 -6 324 -26 392 -39 132 -95 225 -196 325 -112 113 -227 175 -374 205 -51
10 -94 20 -95 22 -1 2 -10 39 -20 83 -42 183 -149 324 -320 420 -101 56 -237
80 -376 65z m253 -124 c159 -57 272 -170 327 -331 11 -32 20 -71 20 -87 l0
-28 -520 0 -520 0 0 24 c0 41 50 168 86 216 42 59 131 143 174 165 97 50 153
64 260 64 86 1 117 -4 173 -23z"/>
<path d="M610 982 c0 -752 1 -790 18 -805 17 -16 122 -17 1305 -17 1275 0
1287 0 1307 20 20 20 20 31 18 803 l-3 782 -337 3 -338 2 0 -285 0 -285 100 0
99 0 17 -31 c12 -25 14 -37 5 -56 -15 -33 -49 -43 -142 -43 l-79 0 0 -69 c0
-38 -3 -83 -6 -100 -8 -38 -44 -65 -73 -56 -44 14 -51 32 -51 131 l0 94 -84 0
c-47 0 -96 4 -110 10 -33 12 -44 54 -25 89 14 25 20 26 114 31 l100 5 0 280 0
280 -512 3 -513 2 0 -285 0 -285 93 0 c98 0 108 -3 126 -37 16 -31 14 -41 -14
-68 -22 -23 -32 -25 -115 -25 l-90 0 0 -90 c0 -83 -2 -93 -25 -115 -31 -31
-49 -31 -80 0 -23 22 -25 32 -25 114 l0 89 -101 4 c-86 2 -103 6 -115 22 -20
28 -17 63 6 86 17 17 33 20 115 20 l95 0 0 285 0 285 -340 0 -340 0 0 -788z"/>
<path d="M415 1357 c-91 -48 -168 -130 -215 -229 -54 -114 -62 -192 -58 -606
3 -317 4 -334 22 -348 15 -11 56 -14 168 -14 l148 0 0 615 c0 338 -1 615 -2
615 -2 0 -30 -15 -63 -33z"/>
<path d="M3390 776 l0 -616 146 0 c81 0 154 5 165 10 18 10 19 25 19 400 0
242 -4 409 -11 442 -29 140 -133 280 -257 346 l-62 33 0 -615z"/>
</g>
</svg>
